<?xml version="1.0" standalone="no"?>
<!DOCTYPE svg PUBLIC "-//W3C//DTD SVG 20010904//EN"
 "http://www.w3.org/TR/2001/REC-SVG-20010904/DTD/svg10.dtd">
<svg version="1.0" xmlns="http://www.w3.org/2000/svg"
 width="703.000000pt" height="703.000000pt" viewBox="0 0 703.000000 703.000000"
 preserveAspectRatio="xMidYMid meet">
<metadata>
Created by potrace 1.14, written by Peter Selinger 2001-2017
</metadata>
<g transform="translate(0.000000,703.000000) scale(0.100000,-0.100000)"
fill="#000000" stroke="none">
<path d="M819 7028 c-7 -17 -3 -231 4 -235 5 -3 28 -7 51 -8 129 -6 208 -31
269 -84 70 -62 65 207 65 -3185 0 -2052 -3 -3077 -10 -3099 -11 -37 -50 -84
-88 -108 -52 -33 -163 -59 -265 -63 l-30 -1 0 -120 0 -120 970 0 970 0 0 120
0 120 -40 3 c-150 10 -248 61 -281 147 -14 39 -16 162 -17 1254 -2 1070 0
1211 13 1211 8 1 436 2 950 4 514 2 955 6 980 10 25 3 83 10 130 16 107 14
132 18 200 32 30 6 62 12 70 13 38 5 165 41 270 77 282 97 544 256 717 437
222 232 371 579 428 1001 3 25 8 56 10 70 19 133 27 589 11 740 -20 200 -29
258 -62 409 -59 263 -176 520 -319 697 -184 230 -502 429 -855 538 -152 46
-358 89 -493 102 -34 3 -73 8 -87 12 -24 6 -3559 16 -3561 10z m3526 -1244
c190 -33 359 -109 454 -205 31 -30 61 -62 68 -71 27 -37 80 -156 84 -193 1 -5
5 -20 10 -31 4 -12 10 -39 14 -61 3 -21 8 -50 11 -63 16 -73 10 -385 -10 -485
-3 -16 -8 -43 -11 -58 -8 -44 -52 -153 -81 -203 -39 -67 -110 -135 -190 -182
-67 -40 -201 -95 -261 -107 -15 -3 -37 -8 -48 -10 -11 -2 -33 -7 -50 -11 -54
-12 -1915 -13 -1916 0 -1 15 -1 1656 0 1679 1 16 48 17 924 16 748 0 937 -3
1002 -15z"/>
</g>
</svg>
