<?xml version="1.0" standalone="no"?>
<!DOCTYPE svg PUBLIC "-//W3C//DTD SVG 20010904//EN"
 "http://www.w3.org/TR/2001/REC-SVG-20010904/DTD/svg10.dtd">
<svg version="1.0" xmlns="http://www.w3.org/2000/svg"
 width="486.000000pt" height="486.000000pt" viewBox="0 0 486.000000 486.000000"
 preserveAspectRatio="xMidYMid meet">
<metadata>
Created by potrace 1.14, written by Peter Selinger 2001-2017
</metadata>
<g transform="translate(0.000000,486.000000) scale(0.100000,-0.100000)"
fill="#000000" stroke="none">
<path d="M4 3451 c-2 -2 -4 -19 -4 -38 0 -28 4 -33 23 -33 38 0 63 -11 76 -32
10 -17 13 -200 13 -911 -1 -848 -1 -891 -19 -908 -16 -16 -44 -26 -80 -28 -8
-1 -13 -15 -13 -36 l0 -35 280 0 280 0 0 34 c0 31 -3 34 -35 40 -63 12 -63 14
-63 394 0 188 4 345 9 348 5 2 129 5 277 6 281 0 366 9 476 47 162 57 272 180
307 344 7 31 16 57 21 57 16 0 12 -51 -7 -95 -29 -63 -174 -383 -205 -450 -18
-38 -79 -173 -137 -300 -138 -303 -159 -342 -194 -357 -22 -10 -29 -20 -29
-40 l0 -28 206 0 205 0 -3 28 c-2 19 -9 28 -25 30 -42 6 -38 38 21 158 30 63
61 114 68 115 88 5 631 -1 637 -7 16 -17 101 -213 101 -232 0 -21 -33 -56 -43
-45 -4 3 -7 -6 -7 -21 l0 -26 217 2 c215 3 216 3 219 25 3 15 -3 26 -18 34
-38 20 -46 33 -112 171 -35 73 -84 176 -109 228 -25 52 -73 154 -107 225 -34
72 -80 168 -102 215 -22 47 -67 140 -99 208 -63 130 -68 149 -44 158 22 9 20
64 -2 65 -10 0 -111 1 -225 1 l-206 1 -1 111 c0 170 -41 306 -119 396 -72 85
-218 156 -362 176 -58 8 -1058 13 -1066 5z m1084 -380 c29 -13 61 -36 71 -50
40 -56 55 -183 32 -268 -17 -60 -53 -99 -118 -123 -56 -21 -136 -24 -549 -21
l-62 1 1 244 0 244 286 -2 c276 -2 288 -3 339 -25z m793 -858 c99 -204 106
-223 86 -223 -115 -2 -422 2 -426 5 -2 3 1 15 7 28 16 32 93 210 96 222 1 6
11 30 22 55 11 25 34 77 50 117 l29 72 14 -27 c8 -15 63 -127 122 -249z"/>
<path d="M2411 2758 c-11 -4 -17 -15 -16 -29 1 -18 8 -23 35 -25 18 -2 38 -8
44 -14 7 -7 11 -141 11 -438 1 -426 1 -427 25 -496 52 -146 194 -253 410 -310
84 -22 111 -25 235 -22 105 3 158 9 213 25 199 58 329 165 384 317 20 57 21
76 22 486 1 322 4 430 14 440 18 18 102 15 117 -5 9 -13 12 -155 11 -597 -1
-621 1 -599 -48 -600 -19 0 -38 -28 -31 -47 4 -10 106 -13 467 -13 391 0 465
-2 482 -15 10 -8 30 -15 44 -15 l25 0 0 158 0 157 -26 3 c-19 2 -28 -3 -36
-21 -6 -14 -24 -29 -40 -34 -15 -5 -143 -9 -283 -9 l-255 1 -3 511 c-2 549 -4
533 47 537 16 1 21 8 21 29 0 15 -3 28 -7 29 -10 1 -813 1 -834 0 -12 -1 -14
-9 -11 -32 3 -19 9 -28 17 -25 7 2 21 -1 30 -8 16 -11 17 -46 16 -402 -1 -214
-3 -399 -5 -411 -16 -81 -79 -156 -173 -203 -42 -22 -63 -25 -173 -27 -115 -2
-129 -1 -178 22 -76 35 -154 117 -177 185 -17 50 -19 93 -19 437 -1 368 0 383
19 396 10 8 25 12 33 10 10 -4 13 3 10 27 l-3 33 -198 1 c-109 1 -206 -2 -216
-6z"/>
</g>
</svg>
