<?xml version="1.0" encoding="UTF-8"?>
<svg id="Layer_1" data-name="Layer 1" xmlns="http://www.w3.org/2000/svg" viewBox="0 0 485.48 205.3" fill="blue">
    <path d="m98.18,196.82c2.42-.4,4.39-1.56,5.9-3.48,1.51-1.92,2.67-3.68,3.48-5.3l45.09-98.35c1.21-2.82,2.17-5.09,2.88-6.81.7-1.71,1.06-3.38,1.06-4.99,0-1.21-.26-1.97-.76-2.27-.51-.3-1.06-.65-1.66-1.06v-5.45h45.69v5.45c-.61.41-1.26.71-1.97.91-.71.2-1.06,1.01-1.06,2.42,0,1.21.45,2.68,1.36,4.39.91,1.72,1.86,3.68,2.88,5.9l49.02,102.89c1.01,1.82,2.12,3.13,3.33,3.93,1.21.81,2.52,1.41,3.93,1.82v5.45h-42.97v-4.54c1.01,0,2.07-.3,3.18-.91,1.11-.61,1.66-1.71,1.66-3.33,0-1.21-.2-2.32-.6-3.33-.41-1.01-.91-2.32-1.51-3.93l-8.17-17.25h-64.76l-8.47,16.34c-.81,1.62-1.47,3.08-1.97,4.39-.51,1.31-.76,2.47-.76,3.48,0,1.62.5,2.62,1.51,3.03,1.01.41,2.42.61,4.24.61v5.45h-40.55v-5.45Zm101.07-50.23l-24.51-50.84-21.49,50.84h46Z" fill="white"/>
    <path d="m283.16,74.58c-4.44,0-6.66,1.52-6.66,4.55v69.49c0,9.71,3.53,17.5,10.59,23.36,7.06,5.87,10.85,8.8,25.38,8.8s20.32-2.93,27.38-8.8c7.06-5.86,9.59-13.65,9.59-23.36v-69.49c0-3.04-1.53-4.55-6.56-4.55v-5.46h41.06v5.45c-4.44,0-6.66,1.51-6.66,4.54v76.56c0,6.26-1.41,12.26-4.24,18.01-2.83,5.75-7.11,10.85-12.86,15.28-5.75,4.44-12.12,7.92-21.09,10.44-8.98,2.52-14.52,3.78-26.62,3.78s-15.65-1.26-24.62-3.78c-8.98-2.52-16.34-6-22.09-10.44-5.75-4.44-10.04-9.53-12.86-15.28-2.83-5.75-4.24-11.75-4.24-18.01v-76.56c0-1.61-.61-2.77-1.82-3.48-1.21-.7-3.53-1.06-6.96-1.06v-5.45h43.27v5.46Z" fill="white"/>
    <path d="m427.82,69.12v5.45c-4.64,0-6.96,1.51-6.96,4.54v100.77h50.7c2.42,0,4.44-.55,6.05-1.66,1.61-1.11,2.42-2.67,2.42-4.69h5.45v31.77h-5.45c0-1.62-.81-2.52-2.42-2.72-1.62-.2-3.63-.3-6.05-.3h-87.62v-5.45c5.24,0,7.87-1.51,7.87-4.54v-113.18c0-3.03-2.62-4.54-7.87-4.54v-5.45h43.88Z" fill="white"/>
    <path d="m0,202.27v-6.92c7.52,0,11.29-2.31,11.29-6.92V13.84c0-4.61-3.77-6.92-11.29-6.92V0h92.38c19.52,0,34.88,4.55,46.06,13.65,11.18,9.1,16.78,24.55,16.78,46.34s-5.6,37.24-16.78,46.34c-11.19,9.1-26.54,13.65-46.06,13.65h-46.32v68.45c0,4.61,3.25,6.92,9.76,6.92v6.92H0Zm96.04-117.67c6.71,0,12.46-1.66,17.24-5,4.78-3.33,7.17-9.87,7.17-19.61s-2.39-16.28-7.17-19.61c-4.78-3.33-10.52-5-17.24-5h-49.98v49.22h49.98Z" fill="white"/>
</svg>
